<?xml version="1.0"?>
<svg xmlns="http://www.w3.org/2000/svg" xmlns:xlink="http://www.w3.org/1999/xlink" xmlns:svgjs="http://svgjs.com/svgjs" version="1.1" width="512" height="512" x="0" y="0" viewBox="0 0 368 368" style="enable-background:new 0 0 512 512" xml:space="preserve" class=""><circle r="184" cx="184" cy="184" fill="#ffffff" shape="circle" transform="matrix(0.95,0,0,0.95,9.200000000000017,9.200000000000017)"/><g transform="matrix(1,2.4492935982947064e-16,-2.4492935982947064e-16,1,1.1368683772161603e-13,0)"><path xmlns="http://www.w3.org/2000/svg" d="m184 0c-101.457031 0-184 82.535156-184 184s82.542969 184 184 184 184-82.535156 184-184-82.542969-184-184-184zm0 352c-92.640625 0-168-75.367188-168-168s75.359375-168 168-168 168 75.367188 168 168-75.359375 168-168 168zm0 0" fill="#000000" data-original="#000000" style="" class=""/><path xmlns="http://www.w3.org/2000/svg" d="m184 48c-74.992188 0-136 61.007812-136 136s61.007812 136 136 136 136-61.007812 136-136-61.007812-136-136-136zm0 256c-66.167969 0-120-53.832031-120-120s53.832031-120 120-120 120 53.832031 120 120-53.832031 120-120 120zm0 0" fill="#000000" data-original="#000000" style="" class=""/><path xmlns="http://www.w3.org/2000/svg" d="m200 128h-64c-4.414062 0-8 3.574219-8 8v96c0 4.425781 3.585938 8 8 8h64c22.054688 0 40-17.945312 40-40v-32c0-22.054688-17.945312-40-40-40zm24 72c0 13.230469-10.769531 24-24 24h-56v-80h56c13.230469 0 24 10.769531 24 24zm0 0" fill="#000000" data-original="#000000" style="" class=""/></g></svg>
